# xmcd
#
# Track frame offsets:
#	150
#	19100
#	41808
#	56203
#	71142
#	90503
#	106046
#	130879
#	152039
#	167850
#	184096
#	197380
#	211030
#	230558
#	251939
#	271428
#	288313
#	311113
#	326013
#
# Disc length: 4574 seconds
#
# Revision: 0
# Processed by: cddbd v1.5.1PL0 Copyright (c) Steve Scherf et al.
# Submitted via: dBpowerAMP V4.0
#
DISCID=1811dc13
DTITLE=Ry Cooder - River Rescue, The Very Best Of
DYEAR=1900
DGENRE=Country
TTITLE0=River Come Down
TTITLE1=UFO Has Landed in the Ghetto
TTITLE2=Low Commotion
TTITLE3=Smack Dab in the Middle
TTITLE4=Tattler
TTITLE5=Dark End of the Street
TTITLE6=The Very Thing That Makes You Rich
TTITLE7=Going Back To Okinawa
TTITLE8=Money Honey
TTITLE9=Why Don't You Try Me?
TTITLE10=Paris, Texas
TTITLE11=Chloe
TTITLE12=The Pearls/Tia Juana
TTITLE13=I Think It's Going To Work Out Fine
TTITLE14=Down In Hollywood
TTITLE15=Which Came First
TTITLE16=Crazy 'bout an Automobile
TTITLE17=Get Rhythm
TTITLE18=Little Sister
EXTD=Tom
EXTT0=
EXTT1=
EXTT2=
EXTT3=
EXTT4=
EXTT5=
EXTT6=
EXTT7=
EXTT8=
EXTT9=
EXTT10=
EXTT11=
EXTT12=
EXTT13=
EXTT14=
EXTT15=
EXTT16=
EXTT17=
EXTT18=
PLAYORDER=
